<?xml version="1.0" encoding="utf-8"?>
<!-- Generator: Adobe Illustrator 18.0.0, SVG Export Plug-In . SVG Version: 6.00 Build 0)  -->
<!DOCTYPE svg PUBLIC "-//W3C//DTD SVG 1.1//EN" "http://www.w3.org/Graphics/SVG/1.1/DTD/svg11.dtd">
<svg version="1.1" id="Layer_1" xmlns="http://www.w3.org/2000/svg" xmlns:xlink="http://www.w3.org/1999/xlink" x="0px" y="0px"
	 viewBox="904 506.5 109.4 55.5" enable-background="new 904 506.5 109.4 55.5" xml:space="preserve">
<g>
	<g>
		<path fill="#FFFFFF" d="M909.6,557.7H908v-0.8h4.2v0.8h-1.6v4.3c-0.2,0-0.5,0-0.7,0c-0.2,0-0.1,0-0.2-0.1c0-0.1,0-0.4,0-0.5
			c0-0.3,0-0.6,0-0.9C909.6,559.6,909.6,558.6,909.6,557.7z"/>
		<path fill="#FFFFFF" d="M913.9,556.8h2.3c1,0,1.9,0.6,1.9,1.6c0,0.8-0.5,1.4-1.2,1.6c0.5,0.7,0.9,1.3,1.4,2h-1.1l-1.3-1.8h0h-1.1
			v1.8c-0.2,0-0.8,0.1-0.9,0c0-0.1,0-0.3,0-0.4c0-0.2,0-0.4,0-0.6c0-1.1,0-2.2,0-3.3C913.9,557.4,913.9,557.1,913.9,556.8z
			 M916.1,559.4c0.5,0,1.1-0.3,1.1-0.9c0-1.1-1.7-0.9-2.4-0.9c0,0.2,0,0.5,0,0.7c0,0.2,0,0.4,0,0.6c0,0.1,0,0.3,0,0.4
			c0,0.1,0,0,0,0.1c0.1,0,0.3,0,0.4,0C915.5,559.4,915.8,559.4,916.1,559.4z"/>
		<path fill="#FFFFFF" d="M921.8,556.8h0.8l2.3,5.2h-1l-0.5-1.2H921l-0.5,1.2c-0.3,0-0.6,0-0.9,0c0.7-1.5,1.3-3,2-4.5
			C921.6,557.2,921.7,557,921.8,556.8z M923.1,559.9l-0.9-2.1c-0.3,0.7-0.6,1.4-0.9,2.1C921.9,559.9,922.5,559.9,923.1,559.9z"/>
		<path fill="#FFFFFF" d="M926.5,556.8h1.9c1.5,0,2.8,1.1,2.7,2.6c0,1.5-1.3,2.6-2.7,2.6c-0.3,0-0.6,0-0.8,0c-0.2,0-0.4,0-0.6,0
			c-0.1,0-0.4,0-0.4,0c-0.2-0.1-0.1-0.9-0.1-1.1c0-0.8,0-1.7,0-2.5C926.5,557.9,926.5,557.4,926.5,556.8z M928.4,561.2
			c1,0,1.8-0.7,1.8-1.8c0-0.9-0.6-1.7-1.6-1.8c-0.4,0-0.8,0-1.2,0c0,0.8,0,1.7,0,2.5c0,0.2,0,0.4,0,0.7c0,0.1,0,0.3,0,0.3
			c0,0,0.3,0,0.4,0C928,561.2,928.2,561.2,928.4,561.2z"/>
		<path fill="#FFFFFF" d="M933.1,556.8h0.9v5.2c-0.2,0-0.8,0.1-0.9,0c0-0.1,0-0.3,0-0.4c0-0.2,0-0.4,0-0.6c0-1.1,0-2.2,0-3.3
			C933.1,557.4,933.1,557.1,933.1,556.8z"/>
		<path fill="#FFFFFF" d="M938.5,562.1c-1.5,0-2.7-1.2-2.6-2.7c0-1.5,1.3-2.7,2.8-2.7c0.4,0,0.7,0.1,1.1,0.2
			c0.2,0.1,0.3,0.2,0.5,0.3c0.1,0,0.4,0.3,0.4,0.3c0,0.1-0.2,0.3-0.3,0.3c-0.1,0.1-0.2,0.2-0.3,0.3c-0.6-0.5-1.4-0.8-2.1-0.5
			c-0.7,0.3-1,1-1,1.7c0,1.2,1,2.1,2.1,1.8c0.3-0.1,0.5-0.2,0.7-0.3c0.1,0,0.3-0.3,0.3-0.3c0,0,0,0.1,0.1,0.1
			c0.2,0.1,0.4,0.4,0.5,0.5C940,561.8,939.3,562.1,938.5,562.1z"/>
		<path fill="#FFFFFF" d="M942.3,556.8h0.9v5.2c-0.2,0-0.8,0.1-0.9,0c0-0.1,0-0.3,0-0.4c0-0.2,0-0.4,0-0.6c0-1.1,0-2.2,0-3.3
			C942.3,557.4,942.3,557.1,942.3,556.8z"/>
		<path fill="#FFFFFF" d="M947.8,562.1c-1.5,0-2.7-1.2-2.7-2.7c0-1.5,1.3-2.7,2.8-2.7c1.5,0,2.7,1.2,2.6,2.7
			C950.6,560.9,949.3,562.1,947.8,562.1z M947.9,561.3c1,0,1.7-0.9,1.7-1.8c0-1-0.8-1.9-1.8-1.8c-1,0-1.7,0.9-1.7,1.8
			C946.1,560.4,946.8,561.3,947.9,561.3z M948.3,555.2l0.8,0.4l-0.9,0.8c-0.2,0-0.5,0-0.7,0C947.8,556,948.1,555.6,948.3,555.2z"/>
		<path fill="#FFFFFF" d="M952.4,556.8h0.8l2.8,3.6v-3.6h0.9v5.2h-0.8l-2.8-3.7v3.7c-0.2,0-0.8,0.1-0.9,0c0-0.1,0-0.3,0-0.4
			c0-0.2,0-0.4,0-0.6c0-1.1,0-2.2,0-3.3C952.4,557.4,952.4,557.1,952.4,556.8z"/>
		<path fill="#FFFFFF" d="M961.9,556.8h3.8v0.8h-2.9v1.3h2.6v0.8h-2.6v1.4h3v0.8c-0.6,0-1.1,0-1.7,0c-0.4,0-0.9,0-1.3,0
			c-0.2,0-0.6,0.1-0.8,0c-0.1,0-0.1,0-0.1-0.2c0-0.3,0-0.5,0-0.8c0-0.8,0-1.7,0-2.5C961.9,558,961.9,557.4,961.9,556.8z"/>
		<path fill="#FFFFFF" d="M967.6,556.8h0.8l2.8,3.6v-3.6h0.9v5.2h-0.8l-2.8-3.7v3.7c-0.2,0-0.8,0.1-0.9,0c0-0.1,0-0.3,0-0.4
			c0-0.2,0-0.4,0-0.6c0-1.1,0-2.2,0-3.3C967.6,557.4,967.6,557.1,967.6,556.8z"/>
		<path fill="#FFFFFF" d="M979.5,562.1c-1.5,0-2.7-1.2-2.6-2.7c0-1.5,1.3-2.7,2.8-2.7c0.4,0,0.7,0.1,1.1,0.2
			c0.2,0.1,0.3,0.2,0.5,0.3c0.1,0,0.4,0.3,0.4,0.3c0,0.1-0.2,0.3-0.3,0.3c-0.1,0.1-0.2,0.2-0.3,0.3c-0.6-0.5-1.4-0.8-2.1-0.5
			c-0.7,0.3-1,1-1,1.7c0,1.2,1,2.1,2.1,1.8c0.3-0.1,0.5-0.2,0.7-0.3c0.1,0,0.3-0.3,0.3-0.3c0,0,0,0.1,0.1,0.1
			c0.2,0.1,0.4,0.4,0.5,0.5C981.1,561.8,980.4,562.1,979.5,562.1z"/>
		<path fill="#FFFFFF" d="M985.2,556.8h0.8l2.3,5.2h-1l-0.5-1.2h-2.4l-0.5,1.2c-0.3,0-0.6,0-0.9,0c0.7-1.5,1.3-3,2-4.5
			C985,557.2,985.1,557,985.2,556.8z M986.5,559.9l-0.9-2.1c-0.3,0.7-0.6,1.4-0.9,2.1C985.3,559.9,985.9,559.9,986.5,559.9z"/>
		<path fill="#FFFFFF" d="M989.9,556.8h2.3c1,0,1.9,0.6,1.9,1.6c0,0.8-0.5,1.4-1.2,1.6c0.5,0.7,0.9,1.3,1.4,2h-1.1l-1.3-1.8h0h-1.1
			v1.8c-0.2,0-0.8,0.1-0.9,0c0-0.1,0-0.3,0-0.4c0-0.2,0-0.4,0-0.6c0-1.1,0-2.2,0-3.3C989.9,557.4,989.9,557.1,989.9,556.8z
			 M992.1,559.4c0.5,0,1.1-0.3,1.1-0.9c0-1.1-1.7-0.9-2.4-0.9c0,0.2,0,0.5,0,0.7c0,0.2,0,0.4,0,0.6c0,0.1,0,0.3,0,0.4
			c0,0.1,0,0,0,0.1c0.1,0,0.3,0,0.4,0C991.6,559.4,991.8,559.4,992.1,559.4z"/>
		<path fill="#FFFFFF" d="M996,556.8h0.8l2.8,3.6v-3.6h0.9v5.2h-0.8l-2.8-3.7v3.7c-0.2,0-0.8,0.1-0.9,0c0-0.1,0-0.3,0-0.4
			c0-0.2,0-0.4,0-0.6c0-1.1,0-2.2,0-3.3C996,557.4,996,557.1,996,556.8z"/>
		<path fill="#FFFFFF" d="M1002.5,556.8h3.8v0.8h-2.9v1.3h2.6v0.8h-2.6v1.4h3v0.8c-0.6,0-1.1,0-1.7,0c-0.4,0-0.9,0-1.3,0
			c-0.2,0-0.6,0.1-0.8,0c-0.1,0-0.1,0-0.1-0.2c0-0.3,0-0.5,0-0.8c0-0.8,0-1.7,0-2.5C1002.5,558,1002.5,557.4,1002.5,556.8z"/>
		<path fill="#FFFFFF" d="M1010.1,562.1c-0.4,0-0.8-0.1-1.1-0.2c-0.2-0.1-0.3-0.1-0.5-0.2c-0.1-0.1-0.4-0.2-0.5-0.4
			c-0.1-0.1,0.4-0.5,0.5-0.7c0.4,0.4,0.9,0.6,1.5,0.7c0.4,0,1-0.1,1-0.7c0-0.7-1.2-0.8-1.7-0.9c-0.7-0.2-1.2-0.6-1.2-1.4
			c0-1.3,1.5-1.7,2.5-1.4c0.3,0.1,0.5,0.2,0.8,0.3c0.1,0,0.4,0.2,0.4,0.3c0,0,0,0.1-0.1,0.1c0,0.2-0.3,0.4-0.4,0.6
			c-0.4-0.3-0.9-0.5-1.5-0.5c-0.4,0-0.8,0.2-0.8,0.6c0,0.7,1.2,0.8,1.7,1c0.7,0.2,1.2,0.6,1.2,1.4
			C1011.9,561.6,1011,562.1,1010.1,562.1z"/>
	</g>
	<path fill="#FFFFFF" d="M956.7,541v-4.5c-0.4,0-0.7,0-1.1,0.1l0-0.7c0.4,0,0.7,0,1.1-0.1v-2.4h8l3.9,1.3v-10.2l-3.8,1.3h-8v-7.4
		l13.9,0l4.4,1.2l-1.7-9.6h-20c0,0.2,0,0.4,0,0.7l-0.7,0c0-0.2,0-0.5,0-0.7h-6.9l1.3,3.9v22.5c0.4,0,0.7-0.1,1.1-0.1l0.1,0.7
		c-0.4,0-0.7,0.1-1.1,0.1v8.3l-1.3,3.9h28.9l1.7-9.6l-4.8,1.3L956.7,541L956.7,541z M953.4,516.2c0,0.3,0,0.6,0,0.8l-0.7,0
		c0-0.3,0-0.6,0-0.8l0-0.7l0.7,0L953.4,516.2z M953.3,512.3c0,0.5,0,1,0,1.6l-0.7,0c0-0.5,0-1,0-1.6L953.3,512.3z M952.6,518.6
		l0.7,0c0,0.5,0,1,0,1.6l-0.7,0C952.6,519.6,952.6,519.1,952.6,518.6z M952.5,521.7l0.7,0c0,0.5,0,1-0.1,1.6l-0.7,0
		C952.5,522.7,952.5,522.2,952.5,521.7z M952.4,524.8l0.7,0c0,0.5-0.1,1-0.1,1.6l-0.7-0.1C952.3,525.8,952.3,525.3,952.4,524.8z
		 M952.1,527.9l0.7,0.1c0,0.5-0.1,1-0.1,1.6l-0.7-0.1C952,529,952.1,528.4,952.1,527.9z M951,536.1l0,0.7l-1.5,0.1l-0.1-0.7
		L951,536.1z M950,548.2l-0.7-0.1c0.1-0.5,0.2-1,0.3-1.5l0.7,0.1C950.2,547.2,950.1,547.7,950,548.2z M950.6,545.1l-0.7-0.1
		c0.1-0.5,0.2-1,0.3-1.5l0.7,0.1C950.8,544.1,950.7,544.6,950.6,545.1z M951.1,542l-0.7-0.1c0.1-0.5,0.2-1,0.2-1.5l0.7,0.1
		C951.3,541,951.2,541.5,951.1,542z M951.6,538.9l-0.7-0.1c0.1-0.5,0.1-1,0.2-1.6l0.7,0.1C951.8,537.9,951.7,538.4,951.6,538.9z
		 M952,535.8l-0.7-0.1c0.1-0.5,0.1-1,0.2-1.6l0.7,0.1C952.2,534.8,952.1,535.3,952,535.8z M951.7,532.6c0.1-0.5,0.1-1,0.2-1.6
		l0.7,0.1c-0.1,0.5-0.1,1-0.2,1.6L951.7,532.6z M952.5,536.8l0-0.7c0.5,0,1-0.1,1.5-0.1l0,0.7C953.6,536.7,953,536.7,952.5,536.8z"
		/>
	<path fill="#FFFFFF" d="M1012.1,535.6c0.4,0,0.8,0,1.2,0.1c-0.3-1.9-1.1-3.6-2.4-5c-1.3-1.4-3-2.3-4.7-3.1
		c-1.8-0.8-3.7-1.4-5.7-1.9c-1.9-0.5-3.8-0.8-5.7-1.4c-1.8-0.6-4.1-1.4-4.1-3.7v-0.1c0-2,1.9-3,3.6-3.2c2.3-0.3,4.6,0.2,6.8,0.9
		c1.3,0.4,2.5,1,3.7,1.6l0.1,0l3.7,2.7l1.8-10.3l-2.1-0.7l-0.6-0.3c-2.9-1.3-6-2.1-9.1-2.3c-3.2-0.2-6.6-0.1-9.7,1
		c-1.6,0.6-3.1,1.4-4.4,2.4c0,0.3,0.1,0.6,0.1,0.9l-0.7,0.1c0-0.1,0-0.2,0-0.3c-2.3,2.2-3.5,5.3-3.5,8.5v0.1c0,2,0.4,3.9,1.5,5.6
		c1.1,1.7,2.6,2.9,4.4,3.8c1.9,1,4,1.6,6,2.2c2.1,0.6,4.2,1,6.2,1.6c1.9,0.6,4.5,1.5,4.5,3.8v0.1c0,2.5-2.5,3.3-4.6,3.4
		c-2.6,0.2-5.3-0.3-7.7-1.2c-1.4-0.5-2.8-1.2-4.1-2l-0.5-0.3l0,0l-3.4-2.5l-1.8,10.3l2,0.7l0.7,0.3c4.6,2.3,9.9,3.3,15,3
		c4.6-0.2,9.5-1.7,12.4-5.5c1.6-2.1,2.3-4.7,2.3-7.3v-0.1c0-0.4,0-0.8,0-1.1c-0.4,0-0.9,0-1.3-0.1L1012.1,535.6z M984.8,514.7
		c0,0.5,0.1,1,0.1,1.5l-0.7,0c0-0.5,0-1-0.1-1.5L984.8,514.7z M984.1,528.4l-0.7-0.1c0.1-0.5,0.2-1,0.2-1.5l0.7,0.1
		C984.2,527.4,984.1,527.9,984.1,528.4z M984.5,525.4l-0.7-0.1c0.1-0.5,0.1-1,0.1-1.5l0.7,0.1C984.6,524.4,984.5,524.9,984.5,525.4z
		 M984.7,522.3l-0.7,0c0-0.5,0.1-1,0.1-1.5l0.7,0C984.8,521.3,984.8,521.8,984.7,522.3z M984.9,519.3l-0.7,0c0-0.5,0-1,0-1.5l0.7,0
		C984.9,518.3,984.9,518.8,984.9,519.3z M1004.5,536c-0.5,0-1,0-1.5-0.1l0-0.7c0.5,0,1,0,1.5,0.1L1004.5,536z M1007.5,536.1
		l-1.5-0.1l0-0.7l1.5,0.1L1007.5,536.1z M1010.6,536.3l-1.5-0.1l0-0.7l1.5,0.1L1010.6,536.3z"/>
	<path fill="#FFFFFF" d="M935.6,538.2c-0.4,0-0.9,0.1-1.3,0.1l-0.1-0.7c0.4,0,0.7-0.1,1.1-0.1l-1.2-2.6c3.1-1.7,5.4-4.6,6.1-8.2
		c0.2-1,0.3-2,0.3-3v-0.3c0-2.4-0.5-4.6-1.4-6.3c0,0,0,0,0,0c-0.4-0.7-0.8-1.3-1.3-1.9c0,0,0,0,0,0c-0.2-0.3-0.5-0.6-0.8-0.8
		c0,0,0-0.1-0.1-0.1c-1.3-1.2-2.7-2.1-4.4-2.8c-1.6-0.6-3.3-1-5-1.2c-1.1-0.1-2.2-0.2-3.4-0.2h-0.3h-6.6c-0.2,0.4-0.5,0.7-0.7,1.1
		l-0.6-0.4c0.2-0.2,0.3-0.4,0.4-0.6h-7.2h-2.8l1.3,3.9v5.6c0.2-0.2,0.4-0.3,0.6-0.5l0.5,0.6c-0.3,0.3-0.7,0.6-1.1,0.9v20.8
		c0.2,0,0.4-0.1,0.7-0.1l0.1,0.7c-0.3,0-0.5,0.1-0.8,0.1v3.4l-1.3,3.9H919l-1.3-3.9v-8.3h6.4c0.2,0,0.3,0,0.5,0l0.7,1.6
		c0.4-0.1,0.8-0.1,1.3-0.2l0.1,0.7c-0.3,0-0.7,0.1-1,0.1l4.6,10h12.2l-3.3-3.7L935.6,538.2z M910.7,516.9l0.5,0.5
		c-0.4,0.4-0.8,0.8-1.2,1.1l-0.5-0.5C909.9,517.6,910.3,517.2,910.7,516.9z M910,541.6l-0.1-0.7c0.5-0.1,1-0.2,1.5-0.2l0.1,0.7
		C911,541.5,910.5,541.6,910,541.6z M911.8,515.7c0.4-0.4,0.7-0.8,1.1-1.2l0.6,0.5c-0.4,0.4-0.7,0.8-1.1,1.2L911.8,515.7z
		 M913,541.2l-0.1-0.7c0.5-0.1,1-0.2,1.5-0.2l0.1,0.7C914,541,913.5,541.1,913,541.2z M914.5,513.7l-0.6-0.5c0.4-0.4,0.7-0.9,1-1.3
		l0.6,0.5C915.2,512.9,914.9,513.3,914.5,513.7z M916,540.7l-0.1-0.7c0.5-0.1,1-0.1,1.5-0.2l0.1,0.7
		C917,540.5,916.5,540.6,916,540.7z M928.2,539l-0.1-0.7c0.5-0.1,1-0.1,1.5-0.2l0.1,0.7C929.2,538.9,928.7,539,928.2,539z
		 M930.4,524.1c0,1.6-0.7,3.2-2,4.1c-1.3,1-3,1.3-4.7,1.3h-6v-11h6c1.7,0,3.5,0.3,4.8,1.3c1.3,1,1.9,2.5,1.9,4.1V524.1z
		 M931.2,538.7l-0.1-0.7l1.5-0.2l0.1,0.7L931.2,538.7z"/>
</g>
</svg>
